<svg width="28" height="28" viewBox="0 0 28 28" fill="none" xmlns="http://www.w3.org/2000/svg">
<circle cx="14" cy="14" r="13.5" fill="white" stroke="#E7E7E9"/>
<path d="M16.5515 15.6583C16.5985 15.6834 16.625 15.7175 16.625 15.7531C16.625 15.7887 16.5985 15.8228 16.5515 15.8479L16.0247 16.1309C15.9796 16.1567 15.9166 16.1714 15.8507 16.1714C15.7848 16.1714 15.7219 16.1567 15.6768 16.1309L11.1093 13.6771C11.0394 13.6396 11.0001 13.5887 11 13.5356L11 13.4662C11.0001 13.4131 11.0394 13.3622 11.1093 13.3247L15.6768 10.8709C15.7219 10.8451 15.7848 10.8304 15.8507 10.8304C15.9166 10.8304 15.9796 10.8451 16.0247 10.8709L16.5515 11.1539C16.5985 11.179 16.625 11.2131 16.625 11.2487C16.625 11.2843 16.5985 11.3184 16.5515 11.3435L12.5357 13.5009L16.5515 15.6583Z" fill="#898989"/>
</svg>
