<svg width="21" height="16" viewBox="0 0 21 16" fill="none" xmlns="http://www.w3.org/2000/svg">
<path d="M19.4652 1.97504L0.724594 1.97504C0.379753 1.97504 0.0999393 1.55501 0.099961 1.03757C0.0999828 0.52005 0.379883 0.100096 0.724672 0.100096L19.4653 0.100098C19.8101 0.100098 20.0899 0.520129 20.0899 1.03757C20.0899 1.55501 19.81 1.97504 19.4652 1.97504Z" fill="#303030" stroke="white" stroke-width="0.2"/>
<path d="M0.724676 6.6626L19.4653 6.6626C19.8101 6.6626 20.0899 7.08263 20.0899 7.60006C20.0899 8.1175 19.81 8.53753 19.4652 8.53753L0.724597 8.53753C0.379756 8.53753 0.0999431 8.1175 0.0999649 7.60006C0.0999866 7.08262 0.379835 6.6626 0.724676 6.6626Z" fill="#303030" stroke="white" stroke-width="0.2"/>
<path d="M0.725045 13.2251L13.2186 13.2251C13.5634 13.2251 13.8431 13.6451 13.8429 14.1626C13.8427 14.6801 13.5627 15.1 13.2179 15.1L0.724354 15.1C0.379517 15.1 0.0998461 14.68 0.100037 14.1626C0.100176 13.645 0.380209 13.2251 0.725045 13.2251Z" fill="#303030" stroke="white" stroke-width="0.2"/>
</svg>
